<svg width="26.07" height="32.634" xmlns="http://www.w3.org/2000/svg">
 <g>
  <title>Layer 1</title>
  <g stroke="null" id="download">
   <path stroke="null" id="Path_1" data-name="Path 1" d="m13.035,32.634a0.5,0.5 0 0 1 -0.5,-0.5l0,-31.634a0.5,0.5 0 0 1 1,0l0,31.634a0.5,0.5 0 0 1 -0.5,0.5z" fill="#ffffff"/>
   <path stroke="null" id="Path_2" data-name="Path 2" d="m13.033,32.634l0,0a0.5,0.5 0 0 1 -0.354,-0.146l-12.533,-12.537a0.5,0.5 0 0 1 0.707,-0.707l12.179,12.183l12.186,-12.183a0.5,0.5 0 1 1 0.707,0.707l-12.539,12.536a0.5,0.5 0 0 1 -0.353,0.147z" fill="#ffffff"/>
  </g>
 </g>

</svg>